<?xml version="1.0" encoding="utf-8"?>
<!-- Generator: Adobe Illustrator 18.1.0, SVG Export Plug-In . SVG Version: 6.00 Build 0)  -->
<svg version="1.1" id="Layer_1" xmlns="http://www.w3.org/2000/svg" xmlns:xlink="http://www.w3.org/1999/xlink" x="0px" y="0px"
	 viewBox="0 0 500 500" enable-background="new 0 0 500 500" xml:space="preserve">
<path d="M154.6,480.4l-98.9-75.6c31.4-35.6,64-69.7,98-102.2c13.5-13.2,22-21.6,25.5-25.1c-11-1.7-42.3-8.8-94-21.3
	c-37.3-9-61.9-15.7-73.7-20l40.7-116.4c56.3,23.3,106.9,48.9,151.8,77c-10.5-72.3-15.7-131.3-15.7-177h116.3
	c0,32.8-5.9,92.2-17.6,178.4c8.7-3.5,27.7-12,57-25.6c40-17.9,76.9-33.2,110.8-45.8l33.7,118.7c-49,10.9-105.6,21.6-170.1,32.1
	l79,89.8c15.8,18.2,28.3,33,37.5,44.5L333.8,478l-87.9-148.2C219.3,376.9,188.9,427.1,154.6,480.4"/>
</svg>
